<svg width="36" height="36" viewBox="0 0 36 36" fill="none" xmlns="http://www.w3.org/2000/svg">
<rect width="36" height="36" rx="4" fill="white"/>
<path d="M13.6777 13.7227V17.2383H19.6152V13.7227H13.6777ZM15.4598 16.0664C15.1363 16.0664 14.8738 15.8043 14.8738 15.4805C14.8738 15.157 15.1363 14.8945 15.4598 14.8945C15.7832 14.8945 16.0457 15.157 16.0457 15.4805C16.0457 15.8043 15.7832 16.0664 15.4598 16.0664Z" fill="#674EFF"/>
<path d="M20.7871 15.1124L22.3199 14.2104V16.7413L20.7871 15.8237V15.1124Z" fill="#674EFF"/>
<path d="M26.3984 9.66016H9.60156C9.27813 9.66016 9.01562 9.92266 9.01562 10.2461V21.2617H15.2266C15.9906 21.2617 16.6422 21.7516 16.884 22.4336H19.116C19.3578 21.7516 20.0094 21.2617 20.7734 21.2617H26.9844V10.2461C26.9844 9.92266 26.7219 9.66016 26.3984 9.66016ZM23.493 17.7754C23.493 17.9863 23.3797 18.1812 23.1961 18.2852C23.1066 18.3359 23.0066 18.3613 22.907 18.3613C22.8031 18.3613 22.6988 18.3336 22.6063 18.2781L20.7883 17.1898V17.8242C20.7883 18.1477 20.5258 18.4102 20.2023 18.4102H13.093C12.7691 18.4102 12.507 18.1477 12.507 17.8242V13.1367C12.507 12.8133 12.7691 12.5508 13.093 12.5508H20.2023C20.5258 12.5508 20.7883 12.8133 20.7883 13.1367V13.7527L22.6102 12.6805C22.7016 12.6266 22.8043 12.5996 22.907 12.5996C23.0074 12.5996 23.1078 12.6254 23.198 12.677C23.3805 12.7813 23.493 12.9754 23.493 13.1855V17.7754Z" fill="#674EFF"/>
<path d="M27.4141 22.4336H20.7734C20.45 22.4336 20.1875 22.6961 20.1875 23.0195C20.1875 23.3426 19.9246 23.6055 19.6016 23.6055H18H16.3984C16.0754 23.6055 15.8125 23.3426 15.8125 23.0195C15.8125 22.6961 15.55 22.4336 15.2266 22.4336H8.58594C8.2625 22.4336 8 22.6961 8 23.0195V23.7297C8 25.1687 9.17109 26.3398 10.6102 26.3398H18H25.3898C26.8289 26.3398 28 25.1687 28 23.7297V23.0195C28 22.6961 27.7375 22.4336 27.4141 22.4336Z" fill="#674EFF"/>
<path d="M13.6777 13.7227V17.2383H19.6152V13.7227H13.6777ZM15.4598 16.0664C15.1363 16.0664 14.8738 15.8043 14.8738 15.4805C14.8738 15.157 15.1363 14.8945 15.4598 14.8945C15.7832 14.8945 16.0457 15.157 16.0457 15.4805C16.0457 15.8043 15.7832 16.0664 15.4598 16.0664Z" fill="#674EFF"/>
<path d="M13.6777 13.7227V17.2383H19.6152V13.7227H13.6777ZM15.4598 16.0664C15.1363 16.0664 14.8738 15.8043 14.8738 15.4805C14.8738 15.157 15.1363 14.8945 15.4598 14.8945C15.7832 14.8945 16.0457 15.157 16.0457 15.4805C16.0457 15.8043 15.7832 16.0664 15.4598 16.0664Z" fill="#674EFF"/>
</svg>
