<svg width="36" height="36" viewBox="0 0 36 36" fill="none" xmlns="http://www.w3.org/2000/svg">
<rect width="36" height="36" rx="4" fill="white"/>
<g clip-path="url(#clip0_13_637)">
<path d="M14.2445 8.34302L10.8593 11.7278H14.2445V8.34302Z" fill="#674EFF"/>
<path d="M15.4371 15.1047V20.3117C15.4371 21.6336 16.5125 22.709 17.8343 22.709H24.5961V26.2422C24.5961 26.5656 24.3336 26.8281 24.0101 26.8281H13.9726L15.3605 25.1164C15.7621 24.6211 15.8445 23.9289 15.5699 23.3535C15.3277 22.8461 14.8406 22.4969 14.2918 22.4219V20.1754C14.2918 19.2582 13.5457 18.5125 12.6289 18.5125H10.5156V12.8996H14.8297C15.1531 12.8996 15.4156 12.6371 15.4156 12.3137V8H24.0101C24.3336 8 24.5961 8.2625 24.5961 8.58594V12.7074H17.8343C16.5125 12.7074 15.4371 13.7828 15.4371 15.1047Z" fill="#674EFF"/>
<path d="M19.7468 17.0278C19.7468 17.2938 19.5136 17.5188 19.2383 17.5188C19.1277 17.5188 18.9371 17.5196 18.7625 17.5208C18.7601 17.0083 18.7617 17.2079 18.7597 16.5364H19.2383C19.5136 16.5364 19.7468 16.7614 19.7468 17.0278Z" fill="#674EFF"/>
<path d="M22.3789 16.5364H21.8851C21.8859 16.9204 21.8867 17.4806 21.8867 17.7048C21.8867 17.9716 21.8882 18.5083 21.8894 18.8782C22.075 18.8771 22.2812 18.8755 22.398 18.8735C22.9867 18.863 23.2504 18.281 23.2504 17.7083C23.2504 17.1419 23.0215 16.5364 22.3789 16.5364ZM22.3789 16.5364H21.8851C21.8859 16.9204 21.8867 17.4806 21.8867 17.7048C21.8867 17.9716 21.8882 18.5083 21.8894 18.8782C22.075 18.8771 22.2812 18.8755 22.398 18.8735C22.9867 18.863 23.2504 18.281 23.2504 17.7083C23.2504 17.1419 23.0215 16.5364 22.3789 16.5364ZM26.7738 13.8794H17.8347C17.159 13.8794 16.6093 14.429 16.6093 15.1048V20.3118C16.6093 20.9876 17.159 21.5372 17.8347 21.5372H26.7738C27.4496 21.5372 27.9996 20.9876 27.9996 20.3118V15.1048C27.9996 14.429 27.4496 13.8794 26.7738 13.8794ZM19.2375 18.3001C19.1265 18.3001 18.9336 18.3009 18.7578 18.3021V19.2708C18.7578 19.4864 18.5832 19.6614 18.3672 19.6614C18.1515 19.6614 17.9765 19.4864 17.9765 19.2708V16.1458C17.9765 15.9333 18.1492 15.7552 18.3672 15.7552H19.2375C19.9484 15.7552 20.5273 16.3259 20.5273 17.0278C20.5273 17.7294 19.9484 18.3001 19.2375 18.3001ZM22.4117 19.6544C22.1593 19.6587 21.5285 19.6614 21.5015 19.6614C21.2937 19.6614 21.1031 19.5044 21.1031 19.22V16.1489C21.1031 16.1478 21.1031 16.1466 21.1031 16.1466C21.1027 15.9306 21.2777 15.7552 21.4937 15.7552H22.3789C23.3672 15.7552 24.0316 16.5399 24.0316 17.7083C24.0316 18.8196 23.35 19.638 22.4117 19.6544ZM26.141 17.288C26.3566 17.288 26.5316 17.463 26.5316 17.6786C26.5316 17.8942 26.3566 18.0692 26.141 18.0692H25.3656V19.2708C25.3656 19.4864 25.191 19.6614 24.975 19.6614C24.7593 19.6614 24.5843 19.4864 24.5843 19.2708V16.1458C24.5843 15.9302 24.7593 15.7552 24.975 15.7552H26.2418C26.4574 15.7552 26.6324 15.9302 26.6324 16.1458C26.6324 16.3614 26.4574 16.5364 26.2418 16.5364H25.3656V17.288H26.141ZM22.3789 16.5364H21.8851C21.8859 16.9204 21.8867 17.4806 21.8867 17.7048C21.8867 17.9716 21.8882 18.5083 21.8894 18.8782C22.075 18.8771 22.2812 18.8755 22.398 18.8735C22.9867 18.863 23.2504 18.281 23.2504 17.7083C23.2504 17.1419 23.0215 16.5364 22.3789 16.5364Z" fill="#674EFF"/>
<path d="M14.4511 24.3784L11.6618 27.8183C11.5685 27.9332 11.4285 28 11.2805 28C11.1322 28 10.9922 27.9332 10.8989 27.8183L8.10962 24.3784C7.99048 24.2315 7.96626 24.0289 8.04775 23.858C8.12923 23.6872 8.30173 23.5785 8.49091 23.5785H9.44009V20.1753C9.44009 19.9042 9.6597 19.6843 9.93103 19.6843H12.6296C12.901 19.6843 13.1206 19.9043 13.1206 20.1753V23.5785H14.0697C14.2589 23.5785 14.4314 23.6872 14.5129 23.858C14.5944 24.0289 14.5702 24.2315 14.4511 24.3784Z" fill="#674EFF"/>
</g>
<defs>
<clipPath id="clip0_13_637">
<rect width="20" height="20" fill="white" transform="translate(8 8)"/>
</clipPath>
</defs>
</svg>
