<svg width="36" height="36" viewBox="0 0 36 36" fill="none" xmlns="http://www.w3.org/2000/svg">
<rect width="36" height="36" rx="4" fill="white"/>
<g clip-path="url(#clip0_13_591)">
<path d="M27.0262 12.8738L25.0312 14.634V21.3661L27.0262 23.1263C27.4009 23.457 27.9996 23.193 27.9996 22.687V13.3131C27.9996 12.8099 27.404 12.5404 27.0262 12.8738Z" fill="#674EFF"/>
<path d="M19.6601 26C17.3033 27.1034 14.5614 27.1049 12.2016 26C11.9085 25.8628 11.5598 25.9892 11.4226 26.2822C11.2854 26.5752 11.4117 26.924 11.7048 27.0612C14.3765 28.3121 17.4817 28.3138 20.1569 27.0612C20.45 26.924 20.5763 26.5752 20.4391 26.2822C20.3019 25.9891 19.9531 25.8628 19.6601 26Z" fill="#674EFF"/>
<path d="M17.9116 25.396C18.2242 25.3124 18.4098 24.9912 18.3261 24.6786C18.2426 24.3661 17.9214 24.1804 17.6088 24.2641C16.5192 24.5556 15.3494 24.5579 14.2511 24.2641C13.9386 24.1804 13.6174 24.3661 13.5337 24.6786C13.4501 24.9912 13.6357 25.3124 13.9483 25.396C15.2254 25.7377 16.6038 25.7459 17.9116 25.396Z" fill="#674EFF"/>
<path d="M12.2016 9.99995C14.5585 8.89651 17.3002 8.89506 19.6601 9.99995C19.9537 10.1374 20.3022 10.0102 20.4391 9.71776C20.5763 9.42471 20.45 9.07596 20.1569 8.93877C17.485 7.68788 14.3801 7.68627 11.7048 8.93877C11.4118 9.07596 11.2854 9.42475 11.4226 9.71776C11.5598 10.0108 11.9086 10.1371 12.2016 9.99995Z" fill="#674EFF"/>
<path d="M13.9483 10.6041C13.6357 10.6877 13.4501 11.0089 13.5337 11.3214C13.6174 11.634 13.9385 11.8197 14.2511 11.736C16.1509 11.2277 17.5427 11.7561 17.7605 11.7561C18.0193 11.7561 18.2561 11.5833 18.3261 11.3214C18.4097 11.0089 18.2242 10.6877 17.9116 10.6041C16.627 10.2604 15.2483 10.2562 13.9483 10.6041Z" fill="#674EFF"/>
<path d="M22.1017 12.7272H9.75939C8.79025 12.7272 8.00177 13.5156 8.00177 14.4848V21.5152C8.00177 22.4844 8.79025 23.2728 9.75939 23.2728H22.1017C23.0708 23.2728 23.8593 22.4844 23.8593 21.5152V14.4848C23.8593 13.5156 23.0708 12.7272 22.1017 12.7272ZM12.1419 20.6364H10.9702C10.6467 20.6364 10.3843 20.3741 10.3843 20.0505V15.9494C10.3843 15.6259 10.6467 15.3636 10.9702 15.3636C11.2938 15.3636 11.5561 15.6259 11.5561 15.9494V19.4646H12.1419C12.4655 19.4646 12.7278 19.7269 12.7278 20.0505C12.7278 20.3741 12.4655 20.6364 12.1419 20.6364ZM14.4854 20.0505C14.4854 20.3741 14.2231 20.6364 13.8995 20.6364C13.576 20.6364 13.3137 20.3741 13.3137 20.0505V17.7071C13.3137 17.3835 13.576 17.1212 13.8995 17.1212C14.2231 17.1212 14.4854 17.3835 14.4854 17.7071V20.0505ZM13.8995 16.5353C13.576 16.5353 13.3137 16.273 13.3137 15.9494C13.3137 15.6259 13.576 15.3636 13.8995 15.3636C14.2231 15.3636 14.4854 15.6259 14.4854 15.9494C14.4854 16.273 14.2231 16.5353 13.8995 16.5353ZM18.5776 16.1072L17.4313 20.2082C17.2739 20.7715 16.474 20.7829 16.3056 20.2179L15.083 16.1168C14.9905 15.8067 15.167 15.4804 15.477 15.388C15.7872 15.2955 16.1134 15.472 16.2059 15.7821L16.8489 17.9391L17.4491 15.7917C17.5362 15.4801 17.8596 15.2982 18.1711 15.3852C18.4827 15.4723 18.6647 15.7955 18.5776 16.1072ZM20.9299 17.3946C21.2535 17.3946 21.5158 17.6569 21.5158 17.9805C21.5158 18.304 21.2535 18.5663 20.9299 18.5663H20.3441V19.4646H20.9299C21.2535 19.4646 21.5158 19.7269 21.5158 20.0505C21.5158 20.3741 21.2535 20.6364 20.9299 20.6364H19.7582C19.4347 20.6364 19.1724 20.3741 19.1724 20.0505V15.9494C19.1724 15.6259 19.4347 15.3636 19.7582 15.3636H20.9299C21.2535 15.3636 21.5158 15.6259 21.5158 15.9494C21.5158 16.273 21.2535 16.5353 20.9299 16.5353H20.3441V17.3946L20.9299 17.3946Z" fill="#674EFF"/>
</g>
<defs>
<clipPath id="clip0_13_591">
<rect width="20" height="20" fill="white" transform="translate(8 8)"/>
</clipPath>
</defs>
</svg>
