<svg width="36" height="36" viewBox="0 0 36 36" fill="none" xmlns="http://www.w3.org/2000/svg">
<rect width="36" height="36" rx="4" fill="white"/>
<g clip-path="url(#clip0_13_624)">
<path d="M27.4137 21.7606C27.0655 21.7607 25.8637 21.7608 24.2223 21.7608L24.0286 22.2178C23.4538 23.5744 22.1254 24.451 20.6442 24.451H15.3558C13.8746 24.451 12.5462 23.5744 11.9714 22.2178L11.7777 21.7608C10.1363 21.7608 8.93453 21.7607 8.58633 21.7606C8.19824 21.7605 7.91731 22.1312 8.02207 22.5049C8.02488 22.515 8.02656 22.5208 8.02684 22.5217C8.57676 24.217 10.1713 25.6414 12.0475 25.6414H23.9525C25.8286 25.6414 27.4232 24.217 27.9731 22.5217C27.9734 22.5208 27.975 22.515 27.9779 22.5049C28.0827 22.1312 27.8018 21.7605 27.4137 21.7606Z" fill="#674EFF"/>
<path d="M13.0505 21.7606C13.4309 22.6584 14.3211 23.2791 15.356 23.2791H20.6443C21.6792 23.2791 22.5694 22.6584 22.9497 21.7606C22.2647 21.766 13.7356 21.766 13.0505 21.7606Z" fill="#674EFF"/>
<path d="M25.2788 10.3588H10.7198C9.71657 10.3588 8.90036 11.175 8.90036 12.1783V20.5887H27.0983C27.0983 20.4519 27.0983 12.1783 27.0983 12.1783C27.0983 11.175 26.2821 10.3588 25.2788 10.3588ZM17.2666 12.544H17.9529C18.2765 12.544 18.5389 12.8064 18.5389 13.13C18.5389 13.4536 18.2765 13.7159 17.9529 13.7159H17.2666C16.943 13.7159 16.6807 13.4536 16.6807 13.13C16.6807 12.8064 16.943 12.544 17.2666 12.544ZM14.8628 18.3303C15.0917 18.5591 15.0917 18.9301 14.8628 19.159C14.7484 19.2734 14.5985 19.3306 14.4485 19.3306C14.2986 19.3306 14.1486 19.2734 14.0342 19.159L13.5213 18.6461L13.0085 19.159C12.894 19.2734 12.7441 19.3306 12.5942 19.3306C12.4442 19.3306 12.2943 19.2734 12.1799 19.159C11.951 18.9301 11.951 18.5592 12.1799 18.3303L12.6927 17.8174L12.1799 17.3045C11.951 17.0758 11.951 16.7047 12.1799 16.4759C12.4086 16.2471 12.7797 16.2471 13.0085 16.4759L13.5214 16.9888L14.0343 16.4759C14.2631 16.2471 14.6341 16.2471 14.8629 16.4759C15.0917 16.7047 15.0917 17.0757 14.8629 17.3045L14.35 17.8174L14.8628 18.3303ZM15.3728 12.6171L13.6884 14.3015C13.574 14.4159 13.424 14.4731 13.2741 14.4731C13.1242 14.4731 12.9742 14.416 12.8598 14.3015L12.1798 13.6216C11.951 13.3928 11.951 13.0218 12.1798 12.793C12.4086 12.5642 12.7796 12.5642 13.0085 12.793L13.2741 13.0586L14.5442 11.7885C14.773 11.5597 15.144 11.5597 15.3728 11.7885C15.6016 12.0173 15.6016 12.3883 15.3728 12.6171ZM18.7342 18.4034H17.2667C16.9431 18.4034 16.6807 18.1411 16.6807 17.8175C16.6807 17.4939 16.9431 17.2315 17.2667 17.2315H18.7342C19.0578 17.2315 19.3202 17.4939 19.3202 17.8175C19.3202 18.1411 19.0578 18.4034 18.7342 18.4034ZM19.9061 16.0597H17.2667C16.9431 16.0597 16.6807 15.7973 16.6807 15.4737C16.6807 15.1501 16.9431 14.8878 17.2667 14.8878H19.9061C20.2297 14.8878 20.492 15.1501 20.492 15.4737C20.492 15.7973 20.2297 16.0597 19.9061 16.0597ZM23.4046 18.4034C23.081 18.4034 22.8186 18.1411 22.8186 17.8175C22.8186 17.4939 23.081 17.2315 23.4046 17.2315C23.7282 17.2315 23.9905 17.4939 23.9905 17.8175C23.9905 18.1411 23.7282 18.4034 23.4046 18.4034ZM23.4046 16.0597C23.081 16.0597 22.8186 15.7973 22.8186 15.4737C22.8186 15.1501 23.081 14.8878 23.4046 14.8878C23.7282 14.8878 23.9905 15.1501 23.9905 15.4737C23.9905 15.7973 23.7282 16.0597 23.4046 16.0597ZM23.4046 13.7159C23.081 13.7159 22.8186 13.4536 22.8186 13.13C22.8186 12.8064 23.081 12.544 23.4046 12.544C23.7282 12.544 23.9905 12.8064 23.9905 13.13C23.9905 13.4536 23.7282 13.7159 23.4046 13.7159Z" fill="#674EFF"/>
</g>
<defs>
<clipPath id="clip0_13_624">
<rect width="20" height="20" fill="white" transform="translate(8 8)"/>
</clipPath>
</defs>
</svg>
