<svg width="183" height="62" viewBox="0 0 183 62" fill="none" xmlns="http://www.w3.org/2000/svg">
<path d="M56.6433 6.21484L57.0784 55.4631L46.7381 55.5551L46.4546 23.4643L52.8262 17.0525L36.8966 17.1943L36.9787 26.4891L26.6385 26.5812L26.4609 6.48352L56.6433 6.21484Z" fill="#674EFF"/>
<path d="M7.13526 55.7849L6.86328 6.53559L17.2039 6.48779L17.3811 38.5793L10.9883 44.9637L26.9183 44.8901L26.866 35.1588L37.2066 35.111L37.3186 55.6454L7.13526 55.7849Z" fill="#33333D"/>
<path d="M79.5441 29.4692V12.0557H83.7569V29.4692H79.5441ZM68.7891 29.4692V12.0557H73.0019V29.4692H68.7891ZM70.4246 22.6779L70.4494 18.8967H81.7744V22.6779H70.4246Z" fill="#674EFF"/>
<path d="M92.5369 29.6931C91.43 29.6931 90.4387 29.4029 89.5631 28.8225C88.704 28.2254 88.0184 27.4128 87.5063 26.3846C86.9941 25.3397 86.738 24.1622 86.738 22.8521C86.738 21.5088 86.9941 20.323 87.5063 19.2947C88.0184 18.2665 88.7205 17.4622 89.6127 16.8817C90.5048 16.2847 91.5208 15.9862 92.6608 15.9862C93.2886 15.9862 93.8585 16.0774 94.3707 16.2598C94.8993 16.4422 95.3619 16.6993 95.7584 17.031C96.1549 17.3461 96.4936 17.7192 96.7745 18.1504C97.0553 18.565 97.2618 19.0128 97.394 19.4938L96.5762 19.3942V16.2598H100.516V29.4692H96.5019V26.285L97.394 26.2602C97.2618 26.7245 97.047 27.164 96.7497 27.5786C96.4523 27.9932 96.0888 28.3581 95.6593 28.6732C95.2298 28.9883 94.7506 29.2371 94.222 29.4195C93.6933 29.6019 93.1316 29.6931 92.5369 29.6931ZM93.6272 26.3348C94.2385 26.3348 94.7672 26.1938 95.2132 25.9119C95.6593 25.63 96.0062 25.2319 96.254 24.7178C96.5019 24.1871 96.6258 23.5652 96.6258 22.8521C96.6258 22.139 96.5019 21.5253 96.254 21.0112C96.0062 20.4805 95.6593 20.0742 95.2132 19.7923C94.7672 19.4938 94.2385 19.3445 93.6272 19.3445C93.0325 19.3445 92.5121 19.4938 92.066 19.7923C91.6365 20.0742 91.2978 20.4805 91.05 21.0112C90.8022 21.5253 90.6783 22.139 90.6783 22.8521C90.6783 23.5652 90.8022 24.1871 91.05 24.7178C91.2978 25.2319 91.6365 25.63 92.066 25.9119C92.5121 26.1938 93.0325 26.3348 93.6272 26.3348Z" fill="#674EFF"/>
<path d="M103.99 29.4692V16.2598H107.757L107.881 18.6479L107.36 18.6728C107.559 18.2416 107.807 17.8602 108.104 17.5285C108.418 17.1968 108.765 16.9232 109.145 16.7076C109.541 16.4754 109.946 16.3013 110.359 16.1852C110.789 16.0691 111.218 16.011 111.648 16.011C112.292 16.011 112.878 16.1105 113.407 16.3096C113.936 16.5086 114.398 16.832 114.795 17.2797C115.191 17.7109 115.505 18.2997 115.737 19.046L115.117 18.9962L115.315 18.5982C115.53 18.2002 115.803 17.8436 116.133 17.5285C116.48 17.1968 116.86 16.9232 117.273 16.7076C117.686 16.4754 118.116 16.3013 118.562 16.1852C119.008 16.0691 119.437 16.011 119.85 16.011C120.891 16.011 121.758 16.2183 122.452 16.6329C123.146 17.031 123.667 17.6363 124.014 18.4489C124.377 19.2616 124.559 20.2483 124.559 21.4092V29.4692H120.569V21.7326C120.569 21.2019 120.495 20.7625 120.346 20.4142C120.197 20.0659 119.974 19.8089 119.677 19.643C119.396 19.4606 119.041 19.3694 118.611 19.3694C118.264 19.3694 117.942 19.4274 117.645 19.5435C117.364 19.6596 117.116 19.8171 116.901 20.0162C116.703 20.2152 116.546 20.4474 116.43 20.7127C116.315 20.9781 116.257 21.2766 116.257 21.6083V29.4692H112.267V21.7078C112.267 21.2102 112.193 20.7873 112.044 20.4391C111.895 20.0908 111.672 19.8254 111.375 19.643C111.078 19.4606 110.731 19.3694 110.334 19.3694C109.987 19.3694 109.665 19.4274 109.368 19.5435C109.087 19.6596 108.839 19.8171 108.624 20.0162C108.426 20.2152 108.269 20.4474 108.153 20.7127C108.038 20.9781 107.98 21.2683 107.98 21.5834V29.4692H103.99Z" fill="#674EFF"/>
<path d="M127.852 29.4692V16.2598H131.619L131.793 20.5634L131.049 19.7425C131.247 19.0294 131.57 18.3909 132.016 17.827C132.478 17.2632 133.015 16.8154 133.626 16.4837C134.238 16.152 134.89 15.9862 135.584 15.9862C135.882 15.9862 136.154 16.011 136.402 16.0608C136.666 16.1105 136.906 16.1686 137.121 16.2349L136.03 20.6381C135.849 20.522 135.601 20.4308 135.287 20.3644C134.989 20.2815 134.676 20.24 134.345 20.24C133.982 20.24 133.643 20.3064 133.329 20.4391C133.015 20.5552 132.751 20.7293 132.536 20.9615C132.321 21.1936 132.148 21.4673 132.016 21.7824C131.9 22.0975 131.842 22.4541 131.842 22.8521V29.4692H127.852Z" fill="#674EFF"/>
<path d="M144.769 29.718C143.397 29.718 142.175 29.4195 141.101 28.8225C140.044 28.2254 139.201 27.4128 138.573 26.3846C137.962 25.3563 137.656 24.1788 137.656 22.8521C137.656 21.5253 137.962 20.3478 138.573 19.3196C139.201 18.2914 140.044 17.4788 141.101 16.8817C142.175 16.2847 143.397 15.9862 144.769 15.9862C146.14 15.9862 147.354 16.2847 148.411 16.8817C149.485 17.4788 150.328 18.2914 150.939 19.3196C151.55 20.3478 151.856 21.5253 151.856 22.8521C151.856 24.1788 151.55 25.3563 150.939 26.3846C150.328 27.4128 149.485 28.2254 148.411 28.8225C147.354 29.4195 146.14 29.718 144.769 29.718ZM144.769 26.285C145.363 26.285 145.892 26.1358 146.355 25.8373C146.817 25.5388 147.181 25.1324 147.445 24.6183C147.709 24.1042 147.833 23.5155 147.817 22.8521C147.833 22.1887 147.709 21.6 147.445 21.0858C147.181 20.5552 146.817 20.1405 146.355 19.842C145.892 19.5435 145.363 19.3942 144.769 19.3942C144.174 19.3942 143.637 19.5435 143.158 19.842C142.695 20.1405 142.332 20.5552 142.067 21.0858C141.803 21.6 141.679 22.1887 141.696 22.8521C141.679 23.5155 141.803 24.1042 142.067 24.6183C142.332 25.1324 142.695 25.5388 143.158 25.8373C143.637 26.1358 144.174 26.285 144.769 26.285Z" fill="#674EFF"/>
<path d="M68.7891 51.2841V33.8705H73.0019V47.5526H80.7336V51.2841H68.7891Z" fill="#33333D"/>
<path d="M89.1802 51.5329C87.8089 51.5329 86.5864 51.2344 85.5125 50.6373C84.4552 50.0403 83.6126 49.2277 82.9848 48.1994C82.3736 47.1712 82.0679 45.9937 82.0679 44.667C82.0679 43.3402 82.3736 42.1627 82.9848 41.1345C83.6126 40.1063 84.4552 39.2936 85.5125 38.6966C86.5864 38.0996 87.8089 37.801 89.1802 37.801C90.5514 37.801 91.7657 38.0996 92.823 38.6966C93.8969 39.2936 94.7394 40.1063 95.3507 41.1345C95.962 42.1627 96.2676 43.3402 96.2676 44.667C96.2676 45.9937 95.962 47.1712 95.3507 48.1994C94.7394 49.2277 93.8969 50.0403 92.823 50.6373C91.7657 51.2344 90.5514 51.5329 89.1802 51.5329ZM89.1802 48.0999C89.7749 48.0999 90.3036 47.9507 90.7662 47.6522C91.2287 47.3536 91.5922 46.9473 91.8565 46.4332C92.1209 45.9191 92.2448 45.3303 92.2283 44.667C92.2448 44.0036 92.1209 43.4148 91.8565 42.9007C91.5922 42.37 91.2287 41.9554 90.7662 41.6569C90.3036 41.3584 89.7749 41.2091 89.1802 41.2091C88.5854 41.2091 88.0485 41.3584 87.5694 41.6569C87.1068 41.9554 86.7433 42.37 86.479 42.9007C86.2147 43.4148 86.0908 44.0036 86.1073 44.667C86.0908 45.3303 86.2147 45.9191 86.479 46.4332C86.7433 46.9473 87.1068 47.3536 87.5694 47.6522C88.0485 47.9507 88.5854 48.0999 89.1802 48.0999Z" fill="#33333D"/>
<path d="M102.677 47.4034L101.215 44.4182L107.36 38.0747H112.589L102.677 47.4034ZM98.8603 51.2841V32.8755H102.825V51.2841H98.8603ZM107.782 51.2841L103.147 45.264L105.948 43.0749L112.465 51.2841H107.782Z" fill="#33333D"/>
<path d="M118.688 51.5329C117.399 51.5329 116.259 51.3256 115.268 50.911C114.293 50.4964 113.517 49.9408 112.938 49.2443L115.342 47.1546C115.854 47.6687 116.433 48.0502 117.077 48.2989C117.721 48.5311 118.332 48.6472 118.911 48.6472C119.142 48.6472 119.348 48.6223 119.53 48.5726C119.712 48.5228 119.861 48.4565 119.976 48.3736C120.108 48.2741 120.208 48.1663 120.274 48.0502C120.34 47.9175 120.373 47.7682 120.373 47.6024C120.373 47.2707 120.224 47.0137 119.927 46.8312C119.778 46.7483 119.53 46.6488 119.183 46.5327C118.836 46.4166 118.39 46.2839 117.845 46.1347C117.069 45.9357 116.391 45.7035 115.813 45.4381C115.251 45.1562 114.789 44.8328 114.425 44.468C114.095 44.1197 113.839 43.7382 113.657 43.3236C113.475 42.8924 113.384 42.4115 113.384 41.8808C113.384 41.2672 113.525 40.7116 113.806 40.2141C114.103 39.7165 114.491 39.2853 114.97 38.9205C115.466 38.5556 116.028 38.282 116.656 38.0996C117.3 37.9005 117.961 37.801 118.638 37.801C119.365 37.801 120.059 37.884 120.72 38.0498C121.381 38.2157 121.992 38.4478 122.554 38.7464C123.132 39.0449 123.644 39.4014 124.09 39.816L122.008 42.1544C121.711 41.8725 121.372 41.6237 120.992 41.4081C120.629 41.176 120.249 40.9935 119.852 40.8609C119.456 40.7282 119.092 40.6618 118.762 40.6618C118.514 40.6618 118.291 40.6867 118.093 40.7365C117.911 40.7696 117.754 40.836 117.622 40.9355C117.49 41.0184 117.391 41.1262 117.325 41.2589C117.259 41.375 117.226 41.5159 117.226 41.6818C117.226 41.8476 117.267 42.0052 117.349 42.1544C117.449 42.3037 117.581 42.4281 117.746 42.5276C117.911 42.6271 118.176 42.7432 118.539 42.8759C118.902 42.9919 119.398 43.1412 120.026 43.3236C120.802 43.5392 121.471 43.7797 122.033 44.0451C122.595 44.3104 123.041 44.6255 123.371 44.9904C123.636 45.2723 123.834 45.604 123.966 45.9854C124.098 46.3503 124.164 46.7483 124.164 47.1795C124.164 48.0253 123.925 48.7799 123.446 49.4433C122.983 50.0901 122.339 50.6042 121.513 50.9856C120.687 51.3505 119.745 51.5329 118.688 51.5329Z" fill="#33333D"/>
<path d="M132.791 51.5329C131.337 51.5329 130.073 51.2427 129 50.6622C127.926 50.0652 127.091 49.2608 126.497 48.2492C125.902 47.221 125.605 46.0518 125.605 44.7416C125.605 43.73 125.77 42.8012 126.1 41.9554C126.431 41.1096 126.893 40.3799 127.488 39.7663C128.083 39.1361 128.785 38.6551 129.594 38.3235C130.42 37.9752 131.321 37.801 132.295 37.801C133.221 37.801 134.063 37.9669 134.823 38.2986C135.6 38.6303 136.269 39.0946 136.83 39.6917C137.392 40.2887 137.822 40.9935 138.119 41.8062C138.416 42.6188 138.549 43.5061 138.516 44.468L138.491 45.5376H128.008L127.438 43.2988H135.269L134.848 43.7714V43.2739C134.815 42.8593 134.683 42.4944 134.451 42.1793C134.237 41.8476 133.948 41.5906 133.584 41.4081C133.221 41.2257 132.808 41.1345 132.345 41.1345C131.701 41.1345 131.147 41.2672 130.685 41.5325C130.239 41.7813 129.9 42.1544 129.669 42.652C129.437 43.1329 129.322 43.73 129.322 44.4431C129.322 45.1728 129.47 45.8113 129.768 46.3586C130.082 46.8893 130.528 47.3039 131.106 47.6024C131.701 47.9009 132.403 48.0502 133.212 48.0502C133.774 48.0502 134.27 47.9673 134.699 47.8014C135.145 47.6356 135.624 47.3536 136.137 46.9556L137.995 49.5925C137.483 50.0403 136.938 50.4052 136.36 50.6871C135.781 50.969 135.187 51.1763 134.575 51.309C133.981 51.4583 133.386 51.5329 132.791 51.5329Z" fill="#33333D"/>
<path d="M143.674 51.2841L139.338 38.0747H143.526L145.954 46.6571L145.434 46.5576L148.16 39.8907H150.489L153.364 46.5825L152.794 46.6322L155.222 38.0747H159.41L154.925 51.2841H152.001L149.151 44.1943L149.448 44.2441L146.599 51.2841H143.674Z" fill="#33333D"/>
<path d="M165.961 51.508C164.854 51.508 163.863 51.2178 162.987 50.6373C162.128 50.0403 161.443 49.2277 160.93 48.1994C160.418 47.1546 160.162 45.9771 160.162 44.667C160.162 43.3236 160.418 42.1379 160.93 41.1096C161.443 40.0814 162.145 39.2771 163.037 38.6966C163.929 38.0996 164.945 37.801 166.085 37.801C166.713 37.801 167.283 37.8923 167.795 38.0747C168.323 38.2571 168.786 38.5142 169.183 38.8459C169.579 39.161 169.918 39.5341 170.199 39.9653C170.479 40.3799 170.686 40.8277 170.818 41.3086L170 41.2091V38.0747H173.941V51.2841H169.926V48.0999L170.818 48.0751C170.686 48.5394 170.471 48.9789 170.174 49.3935C169.876 49.8081 169.513 50.173 169.083 50.4881C168.654 50.8032 168.175 51.0519 167.646 51.2344C167.117 51.4168 166.556 51.508 165.961 51.508ZM167.051 48.1497C167.663 48.1497 168.191 48.0087 168.637 47.7268C169.083 47.4448 169.43 47.0468 169.678 46.5327C169.926 46.002 170.05 45.3801 170.05 44.667C170.05 43.9538 169.926 43.3402 169.678 42.8261C169.43 42.2954 169.083 41.8891 168.637 41.6072C168.191 41.3086 167.663 41.1594 167.051 41.1594C166.457 41.1594 165.936 41.3086 165.49 41.6072C165.061 41.8891 164.722 42.2954 164.474 42.8261C164.226 43.3402 164.102 43.9538 164.102 44.667C164.102 45.3801 164.226 46.002 164.474 46.5327C164.722 47.0468 165.061 47.4448 165.49 47.7268C165.936 48.0087 166.457 48.1497 167.051 48.1497Z" fill="#33333D"/>
</svg>
